# AST/ASF file generated using VICON BodyLanguage
# -----------------------------------------------
:version 1.10
:name VICON
:units
  mass 1.0
  length 0.45
  angle deg
:documentation
   .ast/.asf automatically generated from VICON data using
   VICON BodyBuilder and BodyLanguage model FoxedUp or BRILLIANT.MOD
:root
   order TX TY TZ RX RY RZ
   axis XYZ
   position 0 0 0  
   orientation 0 0 0 
:bonedata
  begin
     id 1 
     name lhipjoint
     direction 0.521689 -0.742065 0.420928 
     length 2.47002 
     axis 0 0 0  XYZ
  end
  begin
     id 2 
     name lfemur
     direction 0.34202 -0.939693 0  
     length 7.24654  
     axis 0 0 20  XYZ
    dof rx ry rz
    limits (-160.0 20.0)
           (-70.0 70.0)
           (-60.0 70.0)
  end
  begin
     id 3 
     name ltibia
     direction 0.34202 -0.939693 0   
     length 8.04849   
     axis 0 0 20   XYZ
    dof rx
    limits (-10.0 170.0)
  end
  begin
     id 4 
     name lfoot
     direction 0.0745411 -0.2048 0.975961   
     length 1.72367   
     axis -90 7.62852e-016 20   XYZ
    dof rx rz
    limits (-45.0 90.0)
           (-70.0 20.0)
  end
  begin
     id 5 
     name ltoes
     direction 1.53556e-011 -4.21901e-011 1   
     length 0.87311   
     axis -90 7.62852e-016 20   XYZ
    dof rx
    limits (-90.0 20.0)
  end
  begin
     id 6 
     name rhipjoint
     direction -0.52849 -0.738415 0.418857   
     length 2.48223  
     axis 0 0 0  XYZ 
  end
  begin
     id 7 
     name rfemur
     direction -0.34202 -0.939693 0   
     length 7.15571   
     axis 0 0 -20   XYZ
    dof rx ry rz
    limits (-160.0 20.0)
           (-70.0 70.0)
           (-70.0 60.0)
  end
  begin
     id 8 
     name rtibia
     direction -0.34202 -0.939693 0   
     length 7.81659   
     axis 0 0 -20   XYZ
    dof rx
    limits (-10.0 170.0)
 end
 begin
     id 9 
     name rfoot
     direction -0.0917348 -0.252039 0.963359   
     length 1.84382  
     axis -90 -7.62852e-016 -20   XYZ
    dof rx rz
    limits (-45.0 90.0)
           (-20.0 70.0)
  end
  begin
     id 10 
     name rtoes
     direction -1.53551e-011 -4.21879e-011 1   
     length 0.927771   
     axis -90 -7.62852e-016 -20   XYZ
    dof rx
    limits (-90.0 20.0)
  end
  begin
     id 11 
     name lowerback
     direction 0.00583058 0.999822 0.0179296   
     length 2.1429   
     axis 0 0 0   XYZ
    dof rx ry rz
    limits (-20.0 45.0)
           (-30.0 30.0)
           (-30.0 30.0)
  end
  begin
     id 12 
     name upperback
     direction -0.0137999 0.999752 -0.0175071   
     length 2.14252   
     axis 0 0 0   XYZ
    dof rx ry rz
    limits (-20.0 45.0)
           (-30.0 30.0)
           (-30.0 30.0)
  end
  begin
     id 13 
     name thorax
     direction -0.0158036 0.99955 -0.0254909   
     length 2.1383   
     axis 0 0 0   XYZ
    dof rx ry rz
    limits (-20.0 45.0)
           (-30.0 30.0)
           (-30.0 30.0)
  end
  begin
     id 14 
     name lowerneck
     direction -0.0101179 0.999403 -0.0330262   
     length 1.65808   
     axis 0 0 0   XYZ
    dof rx ry rz
    limits (-20.0 45.0)
           (-30.0 30.0)
           (-30.0 30.0)
  end
  begin
     id 15 
     name upperneck
     direction 0.0497734 0.995978 -0.074501   
     length 1.5897   
     axis 0 0 0   XYZ
    dof rx ry rz
    limits (-20.0 45.0)
           (-30.0 30.0)
           (-30.0 30.0)
  end
  begin
     id 16
     name head
     direction 0.0189524 0.999519 -0.0245438  
     length 1.74024  
     axis 0 0 0   XYZ
    dof rx ry rz
    limits (-20.0 45.0)
           (-30.0 30.0)
           (-30.0 30.0)
  end
  begin
     id 17 
     name lclavicle
     direction 0.945604 0.324422 0.0241537  
     length 3.59089  
     axis 0 0 0   XYZ
    dof ry rz
    limits (-20.0 10.0)
           (0.0 20.0)
  end
  begin
     id 18 
     name lhumerus
     direction 1 -4.48964e-011 -2.63524e-027   
     length 5.2391   
     axis 180 -30 -90   XYZ
    dof rx ry rz
    limits (-60.0 90.0)
           (-90.0 90.0)
           (-90.0 90.0)
  end
  begin
     id 19
     name lradius
     direction 1 -4.48969e-011 3.86978e-028   
     length 3.31467   
     axis 180 -30 -90   XYZ
    dof rx
    limits (-10.0 170.0)
  end
  begin
     id 20
     name lwrist
     direction 1 -4.48963e-011 7.20928e-028   
     length 1.65734   
     axis -5.52449e-016 90 90   XYZ
    dof ry
    limits (-180.0 0.0)
 end
  begin
     id 21 
     name lhand
     direction 1 -4.48964e-011 1.44186e-027   
     length 0.9659   
     axis -9.20027e-016 90 90   XYZ
    dof rx rz
    limits (-90.0 90.0)
           (-45.0 45.0)
  end
  begin
     id 22 
     name lfingers
     direction 1 -4.48965e-011 2.88371e-027   
     length 0.778733   
     axis -1.84005e-015 90 90   XYZ
    dof rx
    limits (0.0 90.0)
  end
  begin
     id 23
     name lthumb
     direction 0.707107 -6.34931e-011 0.707107   
     length 1.11811   
     axis -90 45 2.85299e-015   XYZ
    dof rx rz
    limits (-45.0 45.0)
           (-45.0 45.0)
  end
  begin
     id 24 
     name rclavicle
     direction -0.923762 0.370785 0.0958234   
     length 3.54196  
     axis 0 0 0   XYZ 
    dof ry rz
    limits (-10.0 20.0)
           (-20.0 0.0)
  end
  begin
     id 25 
     name rhumerus
     direction -1 -4.48966e-011 1.18702e-017  
     length 5.30252   
     axis 180 30 90   XYZ
    dof rx ry rz
    limits (-90.0 60.0)
           (-90.0 90.0)
           (-90.0 90.0)
  end
  begin
     id 26 
     name rradius
     direction -1 -4.48966e-011 4.46736e-027   
     length 3.67875   
     axis 180 30 90   XYZ
    dof rx
    limits (-10.0 170.0)
  end
  begin
     id 27 
     name rwrist
     direction -1 -4.48966e-011 7.20928e-028   
     length 1.83937   
     axis -5.52449e-016 -90 -90   XYZ
    dof ry
    limits (-180.0 0.0)
  end
  begin
     id 28
     name rhand
     direction -1 -4.48973e-011 1.44186e-027   
     length 0.594811   
     axis -9.20027e-016 -90 -90   XYZ
    dof rx rz
    limits (-90.0 90.0)
           (-45.0 45.0)
  end
  begin
     id 29
     name rfingers
     direction -1 -4.48963e-011 2.88371e-027   
     length 0.479552   
     axis -1.84005e-015 -90 -90   XYZ
    dof rx
    limits (0.0 90.0)
  end
  begin
     id 30
     name rthumb
     direction -0.707107 -6.34932e-011 0.707107   
     length 0.688544   
     axis -90 -45 -2.85299e-015   XYZ
    dof rx rz
    limits (-45.0 45.0)
           (-45.0 45.0)
  end
:hierarchy
  begin
    root lhipjoint rhipjoint lowerback
    lhipjoint lfemur
    lfemur ltibia
    ltibia lfoot
    lfoot ltoes
    rhipjoint rfemur
    rfemur rtibia
    rtibia rfoot
    rfoot rtoes
    lowerback upperback
    upperback thorax
    thorax lowerneck lclavicle rclavicle
    lowerneck upperneck
    upperneck head
    lclavicle lhumerus
    lhumerus lradius
    lradius lwrist
    lwrist lhand lthumb
    lhand lfingers
    rclavicle rhumerus
    rhumerus rradius
    rradius rwrist
    rwrist rhand rthumb
    rhand rfingers
  end

#!OML:ASF E:\acrobat2\Project_11_07_03\Capture day 1\Session 1\Acrobat.ASF
:FULLY-SPECIFIED
:DEGREES
392
root 8.3278 18.2147 -31.6165 3.1646 26.2669 -0.968121
lowerback -5.07555 0.52266 -0.156078
upperback -2.90263 0.719936 -0.480553
thorax -0.1318 0.365073 -0.370279
lowerneck -0.365201 -4.72485 -1.36156
upperneck 6.06414 -6.53563 4.65578
head 2.19504 -3.17617 1.57149
rclavicle -4.22417e-014 -1.98785e-015
rhumerus -39.224 -0.37928 -84.9185
rradius 25.166
rwrist 2.22866
rhand -6.04859 -41.1337
rfingers 7.12502
rthumb 19.7856 -70.1466
lclavicle -4.22417e-014 -1.98785e-015
lhumerus -32.4103 -14.0565 89.8392
lradius 18.9828
lwrist 10.1625
lhand -12.1711 -11.7817
lfingers 7.12502
lthumb 13.8921 17.7343
rfemur -0.197244 5.76699 14.3178
rtibia -0.343383
rfoot -28.1074 -33.8654
rtoes 23.2921
lfemur 4.36312 -0.706845 -15.7689
ltibia 2.52643
lfoot -19.7439 2.46334
ltoes 30.4953
393
root 8.32734 18.2151 -31.6159 3.17954 26.2707 -0.934429
lowerback -5.07409 0.541961 -0.177839
upperback -2.90862 0.74668 -0.503807
thorax -0.138588 0.378558 -0.38068
lowerneck -0.0674353 -4.8708 -1.06959
upperneck 5.55455 -6.69484 4.25338
head 1.95069 -3.26968 1.39912
rclavicle 2.6165e-014 6.36111e-015
rhumerus -39.264 -0.58339 -84.8379
rradius 25.1767
rwrist 2.43446
rhand -6.15164 -40.9751
rfingers 7.12502
rthumb 19.6866 -69.9983
lclavicle 2.6165e-014 6.36111e-015
lhumerus -32.4369 -14.0915 89.8314
lradius 18.9709
lwrist 10.1808
lhand -12.174 -11.821
lfingers 7.12502
lthumb 13.8894 17.6952
rfemur -0.190334 5.81481 14.2913
rtibia -0.353747
rfoot -28.246 -33.8402
rtoes 23.509
lfemur 4.35254 -0.714714 -15.8069
ltibia 2.51459
lfoot -19.6712 2.59758
ltoes 30.1374
394
root 8.32635 18.2154 -31.6153 3.14749 26.2749 -1.00569
lowerback -5.07432 0.557941 -0.114371
upperback -2.90149 0.765162 -0.485888
thorax -0.130459 0.38718 -0.396937
lowerneck -0.0979859 -4.88474 -1.08004
upperneck 5.55848 -6.71375 4.25577
head 1.95847 -3.27885 1.40048
rclavicle 5.0541e-014 5.1684e-015
rhumerus -39.3429 -0.789266 -84.7332
rradius 25.2426
rwrist 2.67789
rhand -6.17916 -40.8041
rfingers 7.12502
rthumb 19.6601 -69.8299
lclavicle 5.0541e-014 5.1684e-015
lhumerus -32.4508 -14.179 89.8715
lradius 18.9859
lwrist 10.2573
lhand -12.2484 -11.6605
lfingers 7.12502
lthumb 13.8177 17.8605
rfemur -0.198192 5.87966 14.3871
rtibia -0.33553
rfoot -28.403 -33.804
rtoes 23.9466
lfemur 4.35393 -0.686818 -15.7102
ltibia 2.47722
lfoot -19.6601 2.56826
ltoes 30.0933
395
root 8.32563 18.2151 -31.6153 3.11571 26.2616 -1.09573
lowerback -5.05979 0.577536 0.000611379
upperback -2.91347 0.786358 -0.488817
thorax -0.14915 0.396439 -0.463612
lowerneck -0.0924046 -4.89437 -1.09259
upperneck 5.56032 -6.72948 4.31455
head 1.96172 -3.28573 1.42117
rclavicle 5.04416e-015 1.59028e-015
rhumerus -39.4145 -0.855098 -84.7374
rradius 25.2928
rwrist 2.71493
rhand -6.17746 -40.7803
rfingers 7.12502
rthumb 19.6618 -69.806
lclavicle 5.04416e-015 1.59028e-015
lhumerus -32.4759 -14.2642 89.8664
lradius 18.9738
lwrist 10.2673
lhand -12.2376 -11.6386
lfingers 7.12502
lthumb 13.8281 17.8818
rfemur -0.232768 5.95782 14.4963
rtibia -0.291011
rfoot -28.5456 -33.787
rtoes 24.1763
lfemur 4.35167 -0.669854 -15.6004
ltibia 2.49303
lfoot -19.7024 2.47999
ltoes 29.7756
396
root 8.32578 18.2155 -31.6158 3.1389 26.2449 -1.0601
lowerback -5.04031 0.588073 0.00733835
upperback -2.92955 0.800232 -0.524817
thorax -0.175808 0.403038 -0.50396
lowerneck -0.327463 -4.77606 -1.36251
upperneck 6.0498 -6.60908 4.75428
head 2.19064 -3.21112 1.60257
rclavicle -4.47514e-014 -1.59028e-015
rhumerus -39.4482 -0.881756 -84.7591
rradius 25.3105
rwrist 2.73905
rhand -6.21937 -40.6862
rfingers 7.12502
rthumb 19.6215 -69.716
lclavicle -4.47514e-014 -1.59028e-015
lhumerus -32.5125 -14.3177 89.8467
lradius 18.9659
lwrist 10.2866
lhand -12.1968 -11.6752
lfingers 7.12502
lthumb 13.8674 17.8425
rfemur -0.244959 5.9672 14.4486
rtibia -0.294042
rfoot -28.5395 -33.7705
rtoes 24.0768
lfemur 4.3489 -0.716848 -15.6564
ltibia 2.53511
lfoot -19.7421 2.48749
ltoes 29.4256
397
root 8.32577 18.2163 -31.615 3.16446 26.2439 -0.988298
lowerback -5.0371 0.589547 -0.0605671
upperback -2.92746 0.805093 -0.540879
thorax -0.176094 0.406151 -0.482151
lowerneck -0.357598 -4.776 -1.33686
upperneck 6.07546 -6.60831 4.71304
head 2.20152 -3.21032 1.58397
rclavicle 6.30147e-014 5.56597e-015
rhumerus -39.5493 -0.909656 -84.739
rradius 25.4185
rwrist 2.80077
rhand -6.20289 -40.6205
rfingers 7.12502
rthumb 19.6373 -69.6487
lclavicle 6.30147e-014 5.56597e-015
lhumerus -32.5618 -14.4145 89.9027
lradius 19.0079
lwrist 10.4364
lhand -12.2226 -11.5864
lfingers 7.12502
lthumb 13.8425 17.9329
rfemur -0.218213 5.93879 14.3682
rtibia -0.332304
rfoot -28.4376 -33.7836
rtoes 23.9006
lfemur 4.3592 -0.770077 -15.7489
ltibia 2.54917
lfoot -19.806 2.45834
ltoes 30.0862
398
root 8.32563 18.2159 -31.6137 3.16447 26.2493 -0.978015
lowerback -5.04184 0.606521 -0.0644535
upperback -2.92861 0.827959 -0.556668
thorax -0.17428 0.417533 -0.495019
lowerneck -0.363081 -4.78631 -1.29698
upperneck 6.08581 -6.62186 4.68661
head 2.20353 -3.21652 1.56801
rclavicle 4.57702e-014 7.95139e-015
rhumerus -39.6957 -0.95289 -84.728
rradius 25.5456
rwrist 2.80258
rhand -6.30286 -40.516
rfingers 7.12502
rthumb 19.5412 -69.5539
lclavicle 4.57702e-014 7.95139e-015
lhumerus -32.5921 -14.5283 89.9531
lradius 19.0265
lwrist 10.5108
lhand -12.2434 -11.5462
lfingers 7.12502
lthumb 13.8225 17.9746
rfemur -0.178211 6.02094 14.3742
rtibia -0.382541
rfoot -28.4806 -33.8181
rtoes 23.9082
lfemur 4.37093 -0.78531 -15.7548
ltibia 2.53464
lfoot -19.8434 2.39567
ltoes 31.0407
